<svg width="339" height="525" viewBox="0 0 339 525" fill="none" xmlns="http://www.w3.org/2000/svg">
<g filter="url(#filter0_d)">
<path d="M190.392 136.297C208.611 126.561 245.328 138.304 268.264 136.297C274.717 135.732 283.553 133.774 284.706 139.238C289.31 161.05 281.198 185.489 267.179 205.068C260.1 214.954 246.15 223.697 229.453 225.716C205.019 228.67 184.361 228.485 163.684 217.723C162.892 217.311 152.661 211.38 151.415 214.282C150.136 217.257 152.077 221.108 153.668 223.829C157.617 230.582 160.55 247.696 175.452 247.696C180.387 247.696 185.485 247.948 190.392 247.585C199.401 246.919 208.235 241.68 215.598 238.482C224.375 234.67 231.054 229.527 239.219 225.272C244.468 222.536 250.298 219.748 253.491 215.725C260.109 207.385 228.443 190.705 216.016 195.354C208.626 198.119 213.765 212.845 214.43 216.502C217.115 231.284 221.836 245.911 224.612 260.684C225.844 267.234 219.583 281.079 235.463 281.665C241.542 281.89 244.344 278.112 248.984 276.226C253.221 274.504 259.733 272.673 264.759 272.673C270.141 272.673 276.714 282.197 279.031 285.107C281.531 288.247 284.835 291.945 277.362 292.655C251.481 295.114 224.405 293.654 198.321 293.654C189.252 293.654 180.182 293.654 171.112 293.654C164.325 293.654 164.852 295.037 164.852 299.205C164.852 303.874 165.515 306.98 166.355 311.305C167.374 316.557 166.316 318.162 160.345 314.191C158.316 312.842 135 319.625 135 322.491C135 331.31 158.769 331.221 161.514 339.835C190.392 375.491 185 441.316 185 486.491" stroke="#FF2850" stroke-width="60" stroke-linecap="round" stroke-linejoin="round"/>
</g>
<g filter="url(#filter1_d)">
<path d="M60.1221 132.399C52.0964 140.425 41.3771 148.594 36.5665 159.177C32.3128 168.535 32.9829 178.822 33.1221 188.843C33.2387 197.237 34.2099 202.417 42.3443 195.732C66.8055 175.631 87.3899 149.987 116.122 135.621C121.447 132.958 132.328 126.893 136.9 133.399C140.376 138.346 139.917 146.723 140.067 152.399C140.323 162.147 139.659 171.022 136.122 180.177C132.303 190.06 127.997 199.756 120.567 207.399C115.979 212.118 114.335 217.476 113.178 223.843C112.512 227.506 120.707 220.505 122.122 219.955C129.818 216.962 137.462 214.309 145.067 210.955C150.622 208.504 156.255 202.399 162.622 202.399C166.525 202.399 165.122 206.338 165.122 209.51C165.122 224.711 158.828 239.455 158.178 254.732C157.856 262.281 158.122 269.898 158.122 277.455C158.122 287.371 158.674 296.665 160.567 306.399C161.174 309.524 165.26 324.83 162.122 326.399" stroke="#72195A" stroke-width="57" stroke-linecap="round" stroke-linejoin="round"/>
</g>
<g filter="url(#filter2_d)">
<path d="M281.963 25.5052C259.136 25.5052 236.322 25.2931 213.519 26.5052C202.553 27.0881 190.558 26.2211 180.186 30.5052C177.955 31.4264 177.963 32.3768 177.963 34.5052C177.963 37.55 182.507 37.1679 184.852 37.7274C216.489 45.2738 248.559 44.5052 280.852 44.5052C290.083 44.5052 301.946 41.1757 306.741 50.9496C309.21 55.9821 309.1 61.8222 308.963 67.283C308.763 75.2975 302.339 78.0508 295.186 79.5052C263.326 85.9821 229.499 85.5052 197.186 85.5052C178.07 85.5052 158.635 85.0665 139.63 82.7274C134.197 82.0587 135.866 86.2046 138.186 89.5052C140.845 93.2893 145.703 104.886 150.963 105.505C156.217 106.123 161.785 107.082 167.186 107.839C169.577 108.173 160.493 104.632 166.186 104.505C190.4 103.967 216.084 108.621 239.741 113.283C254.099 116.113 264.832 122.991 276.963 130.727C293.114 141.026 272.88 152.161 262.519 158.505C237.321 173.935 209.342 178.796 180.186 175.283C179.423 175.191 170.408 172.877 170.408 173.95C170.408 176.567 176.299 180.339 177.741 182.283C181.478 187.32 185.698 191.882 189.519 196.839C192.47 200.667 191.963 205.923 191.963 210.505" stroke="#6B5CA5" stroke-width="50" stroke-linecap="round" stroke-linejoin="round"/>
</g>
<path d="M257.82 84.6023C255.542 82.3922 252.629 81.0217 249.482 80.653C249.108 77.6963 247.756 74.8353 245.422 72.5706C243.144 70.3605 240.23 68.9899 237.08 68.6212C236.707 65.6652 235.354 62.8036 233.019 60.5389C230.329 57.9282 226.752 56.491 222.947 56.491C219.142 56.491 215.564 57.9275 212.873 60.5375C212.829 60.5793 212.787 60.6218 212.745 60.6658C205.463 67.8101 202.521 77.5786 203.917 86.845C200.089 85.7035 196.065 85.1079 191.947 85.1079C191.788 85.1079 191.631 85.1178 191.473 85.1192C191.453 85.1192 191.434 85.1164 191.414 85.1164C191.357 85.1164 191.302 85.1228 191.246 85.1249C180.677 85.2979 170.766 89.3628 163.271 96.6333L135.366 123.708C127.707 131.14 123.489 141.021 123.49 151.529C123.49 155.516 124.101 159.412 125.273 163.119C123.754 162.906 122.21 162.795 120.647 162.795C112.185 162.795 104.226 165.983 98.2287 171.773C98.2097 171.792 98.1892 171.811 98.1702 171.829C92.6155 177.217 92.6155 185.987 98.171 191.38C100.448 193.59 103.361 194.96 106.511 195.328C106.883 198.284 108.235 201.145 110.568 203.408C112.846 205.619 115.76 206.99 118.909 207.359C119.282 210.315 120.635 213.177 122.97 215.441C125.663 218.052 129.241 219.49 133.046 219.49C136.85 219.49 140.428 218.053 143.123 215.44C150.497 208.282 153.481 198.454 152.077 189.136C155.904 190.276 159.926 190.871 164.044 190.871C164.197 190.871 164.348 190.862 164.5 190.861C164.525 190.861 164.55 190.864 164.576 190.864C164.652 190.864 164.724 190.856 164.799 190.853C175.347 190.667 185.236 186.606 192.716 179.348L220.619 152.274C228.28 144.842 232.5 134.961 232.501 124.453C232.501 120.463 231.89 116.565 230.717 112.856C232.237 113.07 233.783 113.181 235.347 113.181C243.782 113.181 251.716 110.014 257.705 104.261C257.745 104.225 257.784 104.187 257.822 104.151C260.514 101.538 261.995 98.067 261.995 94.3743C261.994 90.683 260.511 87.2109 257.82 84.6023ZM135.369 207.921C134.748 208.524 133.923 208.855 133.046 208.855C132.168 208.855 131.342 208.523 130.72 207.92C129.439 206.676 129.438 204.653 130.719 203.409C132.859 201.332 132.858 197.966 130.718 195.89C129.648 194.852 128.245 194.333 126.842 194.333C125.44 194.333 124.037 194.852 122.967 195.889C122.346 196.492 121.52 196.824 120.643 196.824C119.767 196.824 118.942 196.492 118.32 195.889C117.041 194.648 117.04 192.628 118.316 191.383L118.318 191.381L118.321 191.378C120.46 189.301 120.459 185.935 118.319 183.86C116.178 181.782 112.709 181.783 110.57 183.859C109.948 184.462 109.123 184.793 108.243 184.793C107.367 184.793 106.542 184.462 105.922 183.861C104.651 182.627 104.639 180.626 105.888 179.382C105.899 179.371 105.91 179.361 105.922 179.349C109.855 175.533 115.084 173.431 120.646 173.431C126.207 173.431 131.437 175.533 135.37 179.349C143.489 187.224 143.488 200.042 135.369 207.921ZM134.452 151.528C134.452 143.861 137.529 136.652 143.118 131.227L159.096 115.724V179.831C153.075 178.852 147.525 176.1 143.122 171.827C137.531 166.405 134.453 159.196 134.452 151.528ZM170.058 179.643V105.089L171.022 104.153C175.166 100.133 180.323 97.4558 185.932 96.3369L185.934 170.888L184.964 171.829C180.822 175.849 175.668 178.525 170.058 179.643ZM221.539 124.454C221.538 132.122 218.459 139.332 212.869 144.755L196.896 160.253L196.895 96.1483C202.914 97.1268 208.462 99.8772 212.866 104.146C212.868 104.148 212.87 104.151 212.873 104.153C212.875 104.156 212.877 104.158 212.88 104.16C218.463 109.583 221.539 116.789 221.539 124.454ZM250.134 96.5681C250.112 96.5887 250.089 96.6106 250.068 96.6312C246.136 100.446 240.908 102.547 235.346 102.547C229.784 102.547 224.555 100.446 220.624 96.6326C212.507 88.7545 212.507 75.9371 220.623 68.0618C220.647 68.0391 220.67 68.015 220.695 67.9909C221.307 67.4322 222.103 67.1259 222.947 67.1259C223.825 67.1259 224.65 67.457 225.269 68.0576C226.551 69.3019 226.553 71.3248 225.271 72.5678C224.201 73.6065 223.666 74.9679 223.666 76.3285C223.666 77.6892 224.201 79.0505 225.271 80.0893C227.412 82.1653 230.882 82.1653 233.022 80.0893C233.643 79.4866 234.469 79.1555 235.345 79.1555C236.224 79.1555 237.05 79.4873 237.672 80.09C238.953 81.3336 238.952 83.3572 237.67 84.6016C236.6 85.6404 236.065 87.001 236.065 88.3624C236.065 89.723 236.601 91.0844 237.671 92.1224C239.812 94.1985 243.283 94.1985 245.422 92.1217C246.044 91.5183 246.868 91.1872 247.746 91.1872C248.622 91.1872 249.448 91.519 250.071 92.1231C250.691 92.7251 251.033 93.5256 251.033 94.3764C251.033 95.1996 250.714 95.9746 250.134 96.5681Z" fill="white"/>
<rect x="81" y="46.4909" width="196" height="196" stroke="white" stroke-width="4"/>
<path d="M42.9862 154.858L48.5345 130.922L71.8609 142.178L66.1184 164.887L42.9862 154.858Z" fill="white" stroke="#99D2FF"/>
<path d="M169.96 238.063L179.439 213.23L201.333 227.411L191.851 250.928L169.96 238.063Z" fill="white" stroke="#99D2FF"/>
<path d="M191.477 33.9402L197.497 16.7551L213.734 26.8926L207.671 43.1591L191.477 33.9402Z" fill="white" stroke="#99D2FF"/>
<path d="M242.064 151.093L255.592 134.29L269.511 151.695L256.302 167.462L242.064 151.093Z" fill="white" stroke="#99D2FF"/>
<path d="M128.334 91.6877L136.963 81.2836L144.983 91.3515L136.57 101.129L128.334 91.6877Z" fill="white" stroke="#99D2FF"/>
<defs>
<filter id="filter0_d" x="101" y="102.383" width="219.013" height="422.108" filterUnits="userSpaceOnUse" color-interpolation-filters="sRGB">
<feFlood flood-opacity="0" result="BackgroundImageFix"/>
<feColorMatrix in="SourceAlpha" type="matrix" values="0 0 0 0 0 0 0 0 0 0 0 0 0 0 0 0 0 0 127 0"/>
<feOffset dy="4"/>
<feGaussianBlur stdDeviation="2"/>
<feColorMatrix type="matrix" values="0 0 0 0 0 0 0 0 0 0 0 0 0 0 0 0 0 0 0.25 0"/>
<feBlend mode="normal" in2="BackgroundImageFix" result="effect1_dropShadow"/>
<feBlend mode="normal" in="SourceGraphic" in2="effect1_dropShadow" result="shape"/>
</filter>
<filter id="filter1_d" x="0.453979" y="102.05" width="197.411" height="260.855" filterUnits="userSpaceOnUse" color-interpolation-filters="sRGB">
<feFlood flood-opacity="0" result="BackgroundImageFix"/>
<feColorMatrix in="SourceAlpha" type="matrix" values="0 0 0 0 0 0 0 0 0 0 0 0 0 0 0 0 0 0 127 0"/>
<feOffset dy="4"/>
<feGaussianBlur stdDeviation="2"/>
<feColorMatrix type="matrix" values="0 0 0 0 0 0 0 0 0 0 0 0 0 0 0 0 0 0 0.25 0"/>
<feBlend mode="normal" in2="BackgroundImageFix" result="effect1_dropShadow"/>
<feBlend mode="normal" in="SourceGraphic" in2="effect1_dropShadow" result="shape"/>
</filter>
<filter id="filter2_d" x="107.001" y="0.490173" width="231.045" height="243.015" filterUnits="userSpaceOnUse" color-interpolation-filters="sRGB">
<feFlood flood-opacity="0" result="BackgroundImageFix"/>
<feColorMatrix in="SourceAlpha" type="matrix" values="0 0 0 0 0 0 0 0 0 0 0 0 0 0 0 0 0 0 127 0"/>
<feOffset dy="4"/>
<feGaussianBlur stdDeviation="2"/>
<feColorMatrix type="matrix" values="0 0 0 0 0 0 0 0 0 0 0 0 0 0 0 0 0 0 0.25 0"/>
<feBlend mode="normal" in2="BackgroundImageFix" result="effect1_dropShadow"/>
<feBlend mode="normal" in="SourceGraphic" in2="effect1_dropShadow" result="shape"/>
</filter>
</defs>
</svg>
